<?xml version="1.0" encoding="UTF-8"?>
<svg width="38px" height="38px" viewBox="0 0 38 38" version="1.1" xmlns="http://www.w3.org/2000/svg" xmlns:xlink="http://www.w3.org/1999/xlink">
    <title>com_suspension_ic_list@2x</title>
    <g id="Page-1" stroke="none" stroke-width="1" fill="none" fill-rule="evenodd">
        <g id="搜索列表页" transform="translate(-661.000000, -1630.000000)" fill="#1A77F2">
            <g id="ic" transform="translate(640.000000, 1598.000000)">
                <g id="编组" transform="translate(0.000000, 11.000000)">
                    <g id="com_suspension_ic_list" transform="translate(21.000000, 21.000000)">
                        <path d="M37.0722668,32.0366541 L37.0722668,35.0366541 L1.07226678,35.0366541 L1.07226678,32.0366541 L37.0722668,32.0366541 Z M10.6078007,16.3295473 L12.729121,18.4508676 L5.65805321,25.5219354 L0.708305744,20.572188 L2.82962609,18.4508676 L5.65805321,21.2792948 L10.6078007,16.3295473 Z M37.0722668,19.0366541 L37.0722668,22.0366541 L16.0722668,22.0366541 L16.0722668,19.0366541 L37.0722668,19.0366541 Z M10.6078007,3.32954729 L12.729121,5.45086764 L5.65805321,12.5219354 L0.708305744,7.57218798 L2.82962609,5.45086764 L5.65805321,8.27929476 L10.6078007,3.32954729 Z M37.0722668,6.03665407 L37.0722668,9.03665407 L16.0722668,9.03665407 L16.0722668,6.03665407 L37.0722668,6.03665407 Z"></path>
                    </g>
                </g>
            </g>
        </g>
    </g>
</svg>