<?xml version="1.0" encoding="UTF-8"?>
<svg width="254px" height="50px" viewBox="0 0 254 50" version="1.1" xmlns="http://www.w3.org/2000/svg" xmlns:xlink="http://www.w3.org/1999/xlink">
    <title>details_bot_google@2x</title>
    <g id="Page-1" stroke="none" stroke-width="1" fill="none" fill-rule="evenodd" opacity="0.3">
        <g id="详情页" transform="translate(-262.000000, -1290.000000)" fill="#2B2C43">
            <g id="details_bot_advertisement" transform="translate(130.000000, 1290.000000)">
                <g id="details_bot_google" transform="translate(132.000000, 0.000000)">
                    <g id="Ads-by-2" transform="translate(1.000000, 0.000000)" font-family="HelveticaNeue, Helvetica Neue" font-size="30" font-weight="normal" line-spacing="50">
                        <text id="Ads-by">
                            <tspan x="0" y="29">Ads by </tspan>
                        </text>
                    </g>
                    <g id="编组" transform="translate(113.000000, 2.000000)" fill-rule="nonzero">
                        <path d="M18.104429,35.6859035 C23.4136883,35.6859035 27.4144908,33.9487543 30.5463735,30.6847997 C33.7703704,27.4571113 34.7712963,22.9383475 34.7712963,19.2827184 C34.7712963,18.1475875 34.6842593,17.1067487 34.5101852,16.2327341 L18.104429,16.2327341 L18.104429,21.1069063 L29.7666667,21.1069063 C29.4185185,23.8486282 28.5010031,25.8505204 27.114213,27.243141 C25.4140895,28.9367708 22.7623611,30.8117313 18.104429,30.8117313 C10.9249614,30.8117313 5.30998459,25.0236519 5.30998459,17.8429517 C5.30998459,10.6622516 10.9249614,4.87054557 18.104429,4.87054557 C21.9746759,4.87054557 24.8080941,6.39735098 26.8933565,8.35572373 L30.3324074,4.91769161 C27.4144908,2.13607694 23.5442438,0 18.104429,0 C8.26743053,0 0,8.00394196 0,17.8429517 C0,27.6783349 8.26743053,35.6859035 18.104429,35.6859035 L18.104429,35.6859035 Z M48.048071,35.6859035 C54.3981481,35.6859035 59.5768519,30.8117313 59.5768519,24.1931567 C59.5768519,17.538316 54.3981482,12.7076632 48.048071,12.7076632 C41.6871142,12.7076632 36.5084105,17.538316 36.5084105,24.1931567 C36.5084105,30.8117313 41.6871142,35.6859035 48.048071,35.6859035 Z M48.048071,31.1598865 C44.562963,31.1598865 41.5565586,28.2876065 41.5565586,24.1931567 C41.5565586,20.0624408 44.562963,17.2373069 48.048071,17.2373069 C51.5259259,17.2373069 54.5287037,20.0624409 54.5287037,24.1931567 C54.5287037,28.2876064 51.5259259,31.1598865 48.048071,31.1598865 Z M73.1981481,35.6859035 C79.5518518,35.6859035 84.7305555,30.8117313 84.7305555,24.1931567 C84.7305555,17.538316 79.5518518,12.7076632 73.1981481,12.7076632 C66.8408179,12.7076632 61.6621142,17.538316 61.6621142,24.1931567 C61.6621142,30.8117313 66.8408179,35.6859035 73.1981481,35.6859035 Z M73.1981481,31.1598865 C69.7166667,31.1598865 66.7102623,28.2876065 66.7102623,24.1931567 C66.7102623,20.0624408 69.7166667,17.2373069 73.1981481,17.2373069 C76.6796296,17.2373069 79.6824074,20.0624409 79.6824074,24.1931567 C79.6824074,28.2876064 76.6796296,31.1598865 73.1981481,31.1598865 Z M97.9166666,46 C103.831559,46 108.843441,42.5220751 108.843441,34.0321665 L108.843441,13.4039735 L104.052778,13.4039735 L104.052778,15.2753075 L103.878704,15.2753075 C102.743596,13.9262062 100.56767,12.7076632 97.8332561,12.7076632 C92.0851851,12.7076632 86.823071,17.7559129 86.823071,24.2403028 C86.823071,30.6847998 92.0851851,35.6859035 97.8332561,35.6859035 C100.56767,35.6859035 102.743596,34.4673605 103.878704,33.0747398 L104.052778,33.0747398 L104.052778,34.7284768 C104.052778,39.1275623 101.702778,41.473983 97.9166666,41.473983 C94.8304784,41.473983 92.912037,39.2581205 92.1250772,37.3795333 L87.7333333,39.2109745 C88.9989969,42.2609587 92.3462963,46 97.9166666,46 L97.9166666,46 Z M98.2611882,31.1598865 C94.7833333,31.1598865 91.863966,28.2477137 91.863966,24.2403028 C91.863966,20.1929991 94.7833333,17.2373069 98.2611882,17.2373069 C101.702778,17.2373069 104.400926,20.1929991 104.400926,24.2403028 C104.400926,28.2477137 101.702778,31.1598865 98.2611882,31.1598865 Z M117.369444,1.21854306 L112.321296,1.21854306 L112.321296,34.9895932 L117.369444,34.9895932 L117.369444,1.21854306 Z M131.208333,35.6859035 C136.470447,35.6859035 139.52037,32.469095 140.782407,30.5941343 L136.862114,27.9865973 C135.560185,29.8941975 133.775926,31.1598865 131.208333,31.1598865 C128.640741,31.1598865 126.809336,29.9848629 125.637963,27.6783349 L141,21.3208767 L140.477778,20.0189215 C139.52037,17.4512772 136.601003,12.7076632 130.642593,12.7076632 C124.724074,12.7076632 119.806481,17.367865 119.806481,24.1931567 C119.806481,30.6376538 124.680556,35.6859035 131.208333,35.6859035 Z M124.811111,23.8486282 C124.680556,19.4132766 128.249074,17.1466415 130.816667,17.1466415 C132.818519,17.1466415 134.515741,18.1475875 135.085108,19.5837275 L124.811111,23.8486282 Z" id="形状"></path>
                    </g>
                </g>
            </g>
        </g>
    </g>
</svg>