<?xml version="1.0" encoding="UTF-8"?>
<svg width="28px" height="28px" viewBox="0 0 28 28" version="1.1" xmlns="http://www.w3.org/2000/svg" xmlns:xlink="http://www.w3.org/1999/xlink">
    <title>google_btn_ic@2x</title>
    <g id="Page-1" stroke="none" stroke-width="1" fill="none" fill-rule="evenodd" opacity="0.5">
        <g id="详情页" transform="translate(-588.000000, -1379.000000)">
            <g id="details_bot_advertisement" transform="translate(130.000000, 1290.000000)">
                <g id="编组" transform="translate(260.000000, 70.000000)">
                    <g id="google_btn_ic" transform="translate(198.000000, 19.000000)">
                        <path d="M9.5,23.5 L7.02999894,25.0437507 C6.56166241,25.336461 5.94471203,25.1940878 5.6520017,24.7257513 C5.55266944,24.5668197 5.5,24.3831721 5.5,24.1957524 L5.5,2.75898566 C5.5,2.20670091 5.94771525,1.75898566 6.5,1.75898566 C6.68005289,1.75898566 6.85676569,1.80759863 7.01148386,1.89969277 L24.9793883,12.594874 C25.4539627,12.8773587 25.6096821,13.4910764 25.3271973,13.9656507 C25.2342063,14.1218758 25.1003846,14.2497939 24.9401259,14.3356469 L13.9722214,20.21131 C13.4853935,20.4721106 12.8793207,20.2888793 12.61852,19.8020514 C12.5407133,19.6568121 12.5,19.4945975 12.5,19.32983 L12.5,13.5 L12.5,13.5" id="路径-5" stroke="#2B2C43" stroke-width="3"></path>
                        <rect id="矩形" fill="#2B2C43" x="10.9663909" y="9.99036661" width="3" height="2"></rect>
                    </g>
                </g>
            </g>
        </g>
    </g>
</svg>