<?xml version="1.0" encoding="UTF-8"?>
<svg width="32px" height="32px" viewBox="0 0 32 32" version="1.1" xmlns="http://www.w3.org/2000/svg" xmlns:xlink="http://www.w3.org/1999/xlink">
    <title>home_ic_search@2x</title>
    <g id="Page-1" stroke="none" stroke-width="1" fill="none" fill-rule="evenodd">
        <g id="home" transform="translate(-54.000000, -752.000000)">
            <g id="search" transform="translate(30.000000, 733.000000)">
                <g id="home_ic_search" transform="translate(24.000000, 19.000000)">
                    <rect id="矩形" fill="#D8D8D8" opacity="0" x="0" y="0" width="32" height="32"></rect>
                    <path d="M14.42,1.31 C21.5997017,1.31 27.42,7.13029825 27.42,14.31 C27.42,17.4598795 26.2997362,20.3481074 24.435899,22.5979931 L30.5802302,28.5311104 L28.4962551,30.6891298 L22.2676819,24.6749658 C20.0868538,26.3287177 17.3680223,27.31 14.42,27.31 C7.24029825,27.31 1.42,21.4897017 1.42,14.31 C1.42,7.13029825 7.24029825,1.31 14.42,1.31 Z M14.42,4.31 C8.8971525,4.31 4.42,8.7871525 4.42,14.31 C4.42,19.8328475 8.8971525,24.31 14.42,24.31 C19.9428475,24.31 24.42,19.8328475 24.42,14.31 C24.42,8.7871525 19.9428475,4.31 14.42,4.31 Z" id="形状结合" fill="#9595A1" fill-rule="nonzero"></path>
                </g>
            </g>
        </g>
    </g>
</svg>