<?xml version="1.0" encoding="UTF-8"?>
<svg width="32px" height="32px" viewBox="0 0 32 32" version="1.1" xmlns="http://www.w3.org/2000/svg" xmlns:xlink="http://www.w3.org/1999/xlink">
    <title>home_update_ic_sale@2x</title>
    <g id="Page-1" stroke="none" stroke-width="1" fill="none" fill-rule="evenodd">
        <g id="home" transform="translate(-54.000000, -654.000000)">
            <g id="tips" transform="translate(30.000000, 512.000000)">
                <g id="数量" transform="translate(24.000000, 137.000000)">
                    <g id="home_update_ic_sale" transform="translate(0.000000, 5.000000)">
                        <rect id="矩形" fill="#000000" opacity="0" x="0" y="3.63797881e-12" width="32" height="32"></rect>
                        <g id="ic">
                            <path d="M16,0 C24.836556,0 32,7.163444 32,16 C32,24.836556 24.836556,32 16,32 C7.163444,32 0,24.836556 0,16 C0,7.163444 7.163444,0 16,0 Z M16,3 C8.82029825,3 3,8.82029825 3,16 C3,23.1797017 8.82029825,29 16,29 C23.1797017,29 29,23.1797017 29,16 C29,8.82029825 23.1797017,3 16,3 Z" id="形状结合" fill="#081424"></path>
                            <path d="M17.5001551,9 L17.5001551,23 L14.5001551,23 L14.5001551,9 L17.5001551,9 Z M22.5001551,14 C23.6047246,14 24.5001551,14.8954305 24.5001551,16 C24.5001551,17.1045695 23.6047246,18 22.5001551,18 C21.3955856,18 20.5001551,17.1045695 20.5001551,16 C20.5001551,14.8954305 21.3955856,14 22.5001551,14 Z M9.50015511,14 C10.6047246,14 11.5001551,14.8954305 11.5001551,16 C11.5001551,17.1045695 10.6047246,18 9.50015511,18 C8.39558561,18 7.50015511,17.1045695 7.50015511,16 C7.50015511,14.8954305 8.39558561,14 9.50015511,14 Z" id="形状结合" fill="#1A77F2" transform="translate(16.000155, 16.000000) rotate(-315.000000) translate(-16.000155, -16.000000) "></path>
                        </g>
                    </g>
                </g>
            </g>
        </g>
    </g>
</svg>