<?xml version="1.0" encoding="UTF-8"?>
<svg width="38px" height="38px" viewBox="0 0 38 38" version="1.1" xmlns="http://www.w3.org/2000/svg" xmlns:xlink="http://www.w3.org/1999/xlink">
    <title>ic@2x</title>
    <g id="Page-1" stroke="none" stroke-width="1" fill="none" fill-rule="evenodd">
        <g id="home" transform="translate(-26.000000, -193.000000)">
            <g id="home_ic_add" transform="translate(0.000000, 176.000000)">
                <g id="ic" transform="translate(26.000000, 17.000000)">
                    <rect id="矩形" fill="#D8D8D8" opacity="0" x="4" y="0" width="30" height="38"></rect>
                    <path d="M19,0.5 C27.26875,0.5 34,7.123 34,15.2815 C34,17.261 33.23125,19.6845 31.69375,22.4965 C30.23125,25.1975 28.01875,28.3425 25.1125,31.8205 L25.09375,31.839 L20.78125,36.686 C20.35,37.204 19.7125,37.5 19.0375,37.5 L19,37.5 C18.34375,37.5 17.725,37.241 17.275,36.76 C16.91875,36.39 13.7125,33.0415 10.50625,28.8235 C6.19375,23.107 4,18.5375 4,15.2815 C4,7.123 10.73125,0.5 19,0.5 Z M18.9999055,7.5 C18.6951568,7.5 18.4181225,7.67260186 18.281747,7.94538932 L16.2434379,12.0496855 L11.6841786,12.8786285 C11.3826333,12.9223235 11.13227,13.1343553 11.039553,13.4241668 C10.9447309,13.7129166 11.0235724,14.0315042 11.242011,14.2435359 L14.5407952,17.2919203 L13.678811,21.7222361 C13.6276657,22.0216397 13.7491222,22.3274684 13.9973987,22.5043355 C14.2343258,22.7412626 14.7230074,22.6279154 14.8391188,22.5671963 L18.9999055,20.5342323 L23.1340396,22.5671963 C23.2501509,22.6279154 23.7094524,22.7706428 23.9757414,22.5043355 C24.2218945,22.3274684 24.3475978,22.021658 24.295409,21.7222361 L23.4600592,17.2919203 L26.7599052,14.2147598 C26.9772821,14.0038081 27.0550436,13.6852204 26.9602032,13.3964707 C26.8664428,13.1066591 26.6171229,12.8946091 26.3155959,12.8509323 L21.7552566,12.0496855 L19.715904,7.94538932 C19.582732,7.67262016 19.3045994,7.5 18.9999055,7.5 Z" fill="#1A77F2" fill-rule="nonzero"></path>
                </g>
            </g>
        </g>
    </g>
</svg>