<?xml version="1.0" encoding="UTF-8"?>
<svg width="44px" height="44px" viewBox="0 0 44 44" version="1.1" xmlns="http://www.w3.org/2000/svg" xmlns:xlink="http://www.w3.org/1999/xlink">
    <title>search_ic_del</title>
    <g id="Page-1" stroke="none" stroke-width="1" fill="none" fill-rule="evenodd">
        <g id="搜索" transform="translate(-676.000000, -226.000000)">
            <g id="分组-14-copy备份" transform="translate(676.000000, 226.000000)">
                <path d="M32,13.5 C32.6903559,13.5 33.3153559,13.779822 33.767767,14.232233 C34.220178,14.6846441 34.5,15.3096441 34.5,16 L34.5,16 L34.5,34 C34.5,34.6903559 34.220178,35.3153559 33.767767,35.767767 C33.3153559,36.220178 32.6903559,36.5 32,36.5 L32,36.5 L9.5,36.5 L9.5,13.5 Z" id="矩形" stroke="#2A2C44" stroke-width="3" transform="translate(22.000000, 25.000000) rotate(-270.000000) translate(-22.000000, -25.000000) "></path>
                <polygon id="矩形" fill="#2A2C44" points="4 11 40 11 40 14 4 14"></polygon>
                <polygon id="矩形" fill="#2A2C44" points="15 5 29 5 29 8 15 8"></polygon>
                <polygon id="矩形" fill="#2A2C44" transform="translate(18.500000, 24.500000) rotate(-270.000000) translate(-18.500000, -24.500000) " points="13 23 24 23 24 26 13 26"></polygon>
                <polygon id="矩形-copy-14" fill="#2A2C44" transform="translate(25.500000, 24.500000) rotate(-90.000000) translate(-25.500000, -24.500000) " points="20 23 31 23 31 26 20 26"></polygon>
            </g>
        </g>
    </g>
</svg>