<?xml version="1.0" encoding="UTF-8"?>
<svg width="50px" height="50px" viewBox="0 0 50 50" version="1.1" xmlns="http://www.w3.org/2000/svg" xmlns:xlink="http://www.w3.org/1999/xlink">
    <title>sign_ic_hidden@2x</title>
    <g id="Page-1" stroke="none" stroke-width="1" fill="none" fill-rule="evenodd">
        <g id="登录_错误提示" transform="translate(-610.000000, -550.000000)">
            <g id="card" transform="translate(30.000000, 196.000000)">
                <g id="编组-2备份" transform="translate(30.000000, 334.000000)">
                    <g id="隐藏" transform="translate(550.000000, 20.000000)">
                        <rect id="矩形" x="0" y="0" width="50" height="50"></rect>
                        <path d="M44.2694606,23.484198 C44.2601323,23.4794275 44.2508039,23.4746571 44.2461397,23.4651163 C44.0735649,23.3315444 43.4532283,22.8545021 42.6416602,22.2820513 C42.5670332,22.2295766 42.5483765,22.1532499 42.5483765,22.1150865 C42.5437123,22.0769231 42.5483765,22.0053667 42.6136751,21.9385808 C43.24334,21.3184258 43.8543482,20.6696482 44.4327071,20.0017889 C44.4606922,19.9731664 44.4793489,19.9445438 44.5026699,19.9159213 C45.085693,19.124031 45.1090139,18.0459153 44.5586401,17.2301729 C44.4653564,17.0918306 44.353416,16.9725701 44.2228188,16.881932 C43.9709528,16.7006559 43.6771092,16.63387 43.3832655,16.6815742 C42.8235634,16.7722123 42.4131151,17.2587955 42.1519208,17.6213476 C39.9924033,20.4168157 32.5763496,27.6487776 24.1668247,27.653548 C21.928016,27.6296959 19.731185,27.2289803 17.6323019,26.4609422 L15.7806206,25.692904 C14.0175588,24.8771616 12.3291239,23.8801431 10.7666221,22.7257007 L9.45598619,21.7191413 C8.26661909,20.7841383 7.16587151,19.7251044 6.19105691,18.5706619 C6.15840762,18.5324985 6.12575832,18.4943351 6.08844485,18.4609422 L6.00448952,18.379845 C5.71531007,18.1031604 5.46810828,17.8646392 5.17426465,17.7358378 C4.92706286,17.6261181 4.43732347,17.5163983 3.93359152,17.974359 C3.04739644,18.7853309 3.2712773,19.9445438 3.77967343,20.7602862 C3.83097946,20.8413834 3.89161386,20.9177102 3.95691245,20.9892665 C4.69851781,21.7525343 5.48210084,22.4919499 6.29366897,23.1836613 C6.36363174,23.2456768 6.37296011,23.3220036 6.37296011,23.360167 C6.37296011,23.3983304 6.35896756,23.4746571 6.27967642,23.5319022 C5.68732496,23.9612403 5.2488916,24.2903995 5.1276228,24.3810376 C5.12295862,24.3810376 5.11829443,24.385808 5.09497351,24.4001193 C4.7311671,24.6147883 4.47463695,24.9582588 4.37202488,25.3637448 C4.26008445,25.7883125 4.33471141,26.2415027 4.57258483,26.6088253 C5.01568237,27.3482409 5.95784768,27.6010733 6.71810978,27.1860465 C6.97930412,27.0429338 7.26848357,26.8234943 7.67426764,26.5181872 C8.0194173,26.255814 8.44852229,25.9314252 8.98956772,25.5593321 C9.06885886,25.5020871 9.1761351,25.5068575 9.26009043,25.5641026 C10.6033756,26.5134168 12.0306161,27.372093 13.4951701,28.1210495 C13.5697971,28.1592129 13.6024464,28.2259988 13.6117747,28.2593918 C13.6211031,28.2927847 13.6350957,28.3595707 13.593118,28.431127 L12.254497,30.7352415 C12.0399445,31.0977937 11.9839743,31.5271318 12.0912505,31.9326178 C12.1985268,32.3428742 12.4597211,32.6863447 12.8328559,32.9010137 L12.8421843,32.9057841 C13.5977822,33.3303518 14.5679326,33.072749 15.0110301,32.3333333 L16.5455469,29.6523554 C16.6015171,29.5521765 16.7227859,29.5140131 16.8300622,29.5521765 C18.6117807,30.2200358 20.4727904,30.6589147 22.3664494,30.8592725 C22.4877182,30.8735838 22.5763377,30.9689922 22.5763377,31.0834824 L22.5763377,33.411449 C22.5763377,34.2844365 23.2946221,35 24.176153,35 C25.0576839,35 25.7759684,34.2892069 25.7759684,33.411449 L25.7759684,31.045319 C25.7759684,30.9308289 25.8645879,30.8354204 25.9858567,30.8211091 C27.8561947,30.6207513 29.6938835,30.1675611 31.4429528,29.4758497 C31.550229,29.4329159 31.676162,29.4758497 31.7321322,29.5712582 L33.3272834,32.3619559 L33.3319476,32.3667263 C33.7750451,33.1156828 34.7172104,33.3732856 35.4821367,32.9582588 L35.4961293,32.9487179 C35.8645998,32.7340489 36.1257942,32.3905784 36.2330704,31.980322 C36.3403467,31.574836 36.2843765,31.1502683 36.069824,30.7877162 L34.6099342,28.2307692 C34.5492998,28.1258199 34.5866132,27.9874776 34.6985537,27.9254621 C36.5035931,26.9189028 38.2293415,25.7406082 39.8291568,24.4287418 C39.908448,24.3619559 40.0250526,24.3571855 40.1090079,24.4144305 C41.2797183,25.2015504 42.2312119,25.9028026 42.4924063,26.1031604 C42.5810258,26.1699463 42.6696453,26.222421 42.762929,26.2605844 C43.5045344,26.5802027 44.3720727,26.3035182 44.782521,25.6118068 C45.2116259,24.881932 44.9877451,23.946929 44.2694606,23.484198 L44.2694606,23.484198 Z" id="路径" fill="#081424" fill-rule="nonzero"></path>
                    </g>
                </g>
            </g>
        </g>
    </g>
</svg>